<?xml version="1.0" encoding="UTF-8"?><svg id="e" xmlns="http://www.w3.org/2000/svg" xmlns:xlink="http://www.w3.org/1999/xlink" viewBox="0 0 960 540"><defs><clipPath id="f"><rect width="960" height="540" style="fill:none; stroke-width:0px;"/></clipPath></defs><rect width="960" height="540" style="fill:#f44336; stroke-width:0px;"/><g style="clip-path:url(#f);"><polygon points="93.79 -311.72 -266.21 -311.72 -446.21 -.2 -266.21 311.72 93.79 311.72 273.79 -.2 93.79 -311.72" style="fill:none; opacity:.12; stroke:#000; stroke-miterlimit:10; stroke-width:5px;"/><polygon points="1300.98 228.28 940.98 228.28 760.98 539.8 940.98 851.72 1300.98 851.72 1480.98 539.8 1300.98 228.28" style="fill:none; opacity:.12; stroke:#000; stroke-miterlimit:10; stroke-width:5px;"/></g><polygon points="851.88 389.98 646.85 390 612.74 357.12 613.58 150.02 819.18 151.01 851 182.83 851.88 389.98" style="fill:#f44336; stroke-width:0px;"/><path d="M611.91,150.02c.67,0,1.17,0,1.67,0,67.72,0,135.45,0,203.17-.02,1.01,0,1.71.29,2.43,1.01,10.59,10.63,21.2,21.24,31.82,31.83.61.61.89,1.21.89,2.09-.02,67.89-.02,135.79-.02,203.68v1.38h-1.48c-67.85,0-135.7,0-203.55.02-.88,0-1.48-.25-2.1-.87-10.65-10.69-21.32-21.35-32-32.01-.58-.58-.85-1.14-.85-1.98.02-67.94.02-135.87.02-203.81v-1.31ZM847.85,186.63h-199.33v199.26h199.33v-199.26ZM618.82,154c.39.45.54.65.72.83,9.02,9.02,18.03,18.05,27.08,27.03.44.43,1.25.69,1.89.69,64.96.03,129.92.03,194.89.03.44,0,.88-.04,1.53-.07-.42-.47-.69-.78-.97-1.07-8.81-8.81-17.63-17.61-26.41-26.44-.71-.72-1.42-1.01-2.43-1.01-64.88.02-129.75.02-194.63.02-.45,0-.9,0-1.65,0ZM644.46,383.1c0-.8,0-1.26,0-1.72,0-64.88,0-129.75.02-194.63,0-.96-.26-1.64-.95-2.33-8.86-8.82-17.69-17.67-26.53-26.5-.28-.28-.6-.53-1.11-.98,0,.72,0,1.17,0,1.61,0,64.92,0,129.84-.02,194.76,0,.92.25,1.57.91,2.22,8.86,8.82,17.69,17.67,26.53,26.5.29.29.6.56,1.15,1.06Z" style="fill:#fff; stroke-width:0px;"/><path d="M690.56,242.09c.37-.03.62-.06.88-.06,13.01,0,26.02-.09,39.02.08,6.64.09,12.91,1.81,18.19,6.12,5.1,4.17,7.61,9.73,8.37,16.15.58,4.89.33,9.74-1.24,14.44-2.92,8.76-9.22,13.79-18.02,15.76-3.07.69-6.28.97-9.43,1.04-6.99.15-13.98.07-20.97.02-1.14,0-1.42.33-1.42,1.44.04,9.75.02,19.49.02,29.24,0,.5,0,.99,0,1.55h-15.4v-85.77ZM706.06,254.2c-.05.41-.1.66-.1.9,0,9.1,0,18.21-.02,27.31,0,.96.41,1.1,1.22,1.1,6.06-.02,12.11.03,18.17-.04,1.9-.02,3.82-.15,5.68-.5,5.42-1.02,9.35-3.85,10.72-9.47.77-3.17.76-6.37-.05-9.55-1.08-4.29-3.77-7.21-7.96-8.46-2.48-.74-5.12-1.13-7.71-1.24-4.48-.2-8.97-.05-13.46-.05-2.11,0-4.23,0-6.48,0Z" style="fill:#fff; stroke-width:0px;"/><path d="M805.85,241.07c.36,4.05.67,7.62,1,11.39-2.14.16-4.23.3-6.32.47-2.68.22-5.29.71-7.65,2.08-3.56,2.07-4.75,5.46-5.03,9.3-.09,1.26-.01,2.53-.01,3.98h16.15v11.37h-16.19v48.22h-15.11v-48.16h-11.44v-11.35h11.28c.18-2,.27-3.85.54-5.67,1.58-10.92,7-17.09,17.76-19.53,4.84-1.1,9.85-1.4,15.02-2.09Z" style="fill:#fff; stroke-width:0px;"/><path d="M785.67,355.74c.07-.42.14-.81.21-1.24h1.8c.07.14.18.24.18.35,0,3.93.12,7.87-.04,11.8-.11,2.81-2.58,4.63-5.62,4.44-1.5-.09-2.97-.42-4-1.63-.49-.57-.79-1.3-1.28-2.13,1.33-.16,2.17-.32,2.95.75.87,1.19,2.29,1.35,3.7.95,1.34-.38,2-1.35,2.1-2.7.05-.69,0-1.39,0-2.14-3.7,1.99-5.99,1.91-7.77-.23-1.71-2.06-1.8-5.66-.2-7.68,1.84-2.33,4.2-2.5,7.96-.54ZM778.84,359.89c-.01,2.28,1.4,3.94,3.39,3.96,1.98.02,3.54-1.68,3.53-3.85,0-2.11-1.52-3.79-3.43-3.82-1.98-.03-3.47,1.56-3.49,3.71Z" style="fill:#fff; stroke-width:0px;"/><path d="M673.67,208.58c-.38,1.65-.62,3.33-1.17,4.9-.68,1.94-2.41,2.53-4.3,2.53-1.95,0-3.62-.67-4.36-2.65-1.18-3.12-1.2-6.3-.09-9.44.7-1.98,2.11-2.79,4.34-2.83,2.1-.04,3.82.63,4.52,2.74.5,1.5.7,3.1,1.05,4.76ZM665.06,208.44c.15,1.2.2,2.4.47,3.54.31,1.32,1.27,1.99,2.58,2.03,1.35.04,2.42-.62,2.77-1.96.61-2.33.62-4.7,0-7.02-.38-1.42-1.3-1.98-2.74-1.95-1.32.03-2.26.66-2.59,2-.27,1.1-.32,2.25-.47,3.37Z" style="fill:#fff; stroke-width:0px;"/><path d="M727.58,360.04c0-3.43,2.31-5.78,5.69-5.76,3.28.02,5.59,2.41,5.57,5.76-.02,3.35-2.45,5.74-5.79,5.72-3.2-.02-5.47-2.39-5.47-5.72ZM736.58,360.01c0-2.33-1.38-3.86-3.46-3.83-2.01.02-3.3,1.51-3.3,3.84,0,2.37,1.25,3.84,3.27,3.84,2.06,0,3.49-1.58,3.49-3.84Z" style="fill:#fff; stroke-width:0px;"/><path d="M710.37,365.54h-1.83c-.04-.41-.11-.81-.11-1.21,0-3.81.03-7.61-.02-11.42-.01-1.04.29-1.44,1.36-1.38,1.52.1,3.05,0,4.56.13,2.35.2,3.85,1.87,3.82,4.09-.02,2.2-1.59,3.81-3.95,3.99-.84.06-1.69.09-2.54.05-.83-.04-1.12.29-1.1,1.11.03,1.44-.02,2.87-.04,4.31,0,.07-.07.15-.15.33ZM710.7,353.4v4.61c1.14,0,2.16.07,3.16-.02,1.27-.1,1.98-.93,2.04-2.18.06-1.27-.59-2.26-1.78-2.39-1.12-.12-2.26-.03-3.43-.03Z" style="fill:#fff; stroke-width:0px;"/><path d="M772.09,365.47c0-2.02,0-4.04,0-6.06,0-1.1-.26-2.11-1.25-2.77-1.79-1.19-4.21-.16-4.42,1.98-.17,1.72-.08,3.47-.11,5.2,0,.54,0,1.08,0,1.68h-2.03v-11c.87.08,1.92-.58,2.16.78,1-.33,1.96-.82,2.96-.95,2.58-.33,4.6,1.37,4.81,4.07.14,1.85.05,3.72.06,5.58,0,.46,0,.92,0,1.49h-2.17Z" style="fill:#fff; stroke-width:0px;"/><path d="M743.83,356.29v9.19h-2.25c0-1.47,0-2.98,0-4.48,0-1.14-.03-2.29.01-3.43.03-.86-.05-1.56-1.25-1.39v-1.61c.38-.06.74-.12,1.08-.18.68-3.73,1.26-4.34,4.14-4.31v1.57c-1.75.61-1.88.82-1.65,2.74.59.05,1.2.1,1.87.15v1.6c-.62.05-1.2.1-1.96.16Z" style="fill:#fff; stroke-width:0px;"/><path d="M753.44,350.71h2.01v14.77h-2.01v-14.77Z" style="fill:#fff; stroke-width:0px;"/><path d="M722.65,354.56c.04.4.07.78.09,1.06,1-.5,2-.99,3.22-1.59v2.4c-.27.06-.51.12-.75.16-1.85.31-2.46.98-2.5,2.87-.03,1.98,0,3.96,0,6.03h-2.13v-10.92h2.07Z" style="fill:#fff; stroke-width:0px;"/><path d="M748.1,354.5h2.01v10.97h-2.01v-10.97Z" style="fill:#fff; stroke-width:0px;"/><path d="M760.8,365.54h-1.9v-11.01h1.9v11.01Z" style="fill:#fff; stroke-width:0px;"/><path d="M760.31,350.01c.25.36.83.85.91,1.41.12.85-.48,1.42-1.39,1.42-.86,0-1.34-.55-1.36-1.36-.01-.89.52-1.37,1.83-1.47Z" style="fill:#fff; stroke-width:0px;"/><path d="M749.5,349.86c.34.53.88,1.03.96,1.59.11.86-.51,1.56-1.37,1.34-.53-.13-1.26-.86-1.28-1.35-.02-.52.69-1.07,1.08-1.61.2,0,.41.02.61.03Z" style="fill:#fff; stroke-width:0px;"/><polygon points="315.98 150 177.4 150 108.1 269.92 177.4 390 315.98 390 385.27 269.92 315.98 150" style="fill:#fff; stroke:#fff; stroke-miterlimit:10; stroke-width:6px;"/><path d="M263.94,266.62h-33.98l-17.02-29.44,16.99-29.44h34.01l16.99,29.44-16.99,29.44ZM233.08,261.19h27.71l13.84-24-13.84-24h-27.71l-13.84,24,13.84,24Z" style="fill:#fab90f; stroke-width:0px;"/><path d="M263.94,332.25h-33.98l-17.02-29.44,16.99-29.44h34.01l16.99,29.44-16.99,29.44ZM233.08,326.81h27.71l13.84-24-13.84-24h-27.71l-13.84,24,13.84,24Z" style="fill:#fab90f; stroke-width:0px;"/><polygon points="319.7 240.6 285.73 240.6 268.74 270 285.73 299.44 319.7 299.44 336.69 270 319.7 240.6" style="fill:#fab90f; stroke-width:0px;"/><polygon points="207.65 240.6 173.68 240.6 156.69 270 173.68 299.44 207.65 299.44 224.64 270 207.65 240.6" style="fill:#fab90f; stroke-width:0px;"/><g style="opacity:.24;"><path d="M448.84,281.61v-22.86h83.7v22.86h-83.7ZM479.08,226.17h23.4v87.66h-23.4v-87.66Z" style="fill:#000; stroke-width:0px;"/></g></svg>
