<?xml version="1.0" encoding="UTF-8"?><svg xmlns="http://www.w3.org/2000/svg" xmlns:xlink="http://www.w3.org/1999/xlink" viewBox="0 0 960 540"><defs><clipPath id="b"><rect y="-620" width="960" height="540" style="fill:none; stroke-width:0px;"/></clipPath></defs><g id="a"><g style="clip-path:url(#b);"><path d="M93.47,234.22h-362.89l-.72-1.25L-450.86-80.2l181.44-314.02H93.47l.72,1.25L274.92-80.2l-.72,1.25L93.47,234.22ZM-266.53,229.22H90.58L269.14-80.2,90.59-389.22h-357.11L-445.08-80.2l178.56,309.42Z" style="fill:#fff; opacity:.12; stroke-width:0px;"/></g></g><g id="d"><rect width="960" height="540" style="fill:#195f82; stroke-width:0px;"/><path d="M286.79,192.71h541l-154.57-154.57M673.21,347.29H132.22l154.57,154.57" style="fill:none; opacity:.12; stroke:#000; stroke-linecap:round; stroke-linejoin:round; stroke-width:18px;"/><circle cx="480" cy="270" r="154.17" style="fill:#195f82; stroke-width:0px;"/><path d="M480,450c-99.42,0-180-80.58-180-180s80.58-180,180-180,180,80.58,180,180-80.58,180-180,180M560.88,247.73c3.53-23.58-14.43-36.26-38.98-44.72l7.97-31.95-19.44-4.84-7.76,31.11c-5.11-1.28-10.35-2.48-15.58-3.67l7.82-31.31-19.44-4.85-7.97,31.94c-4.23-.97-8.39-1.91-12.42-2.93l.02-.1-26.82-6.69-5.18,20.77s14.43,3.31,14.13,3.51c7.87,1.97,9.29,7.18,9.06,11.32l-9.07,36.39c.54.14,1.24.34,2.03.64l-2.06-.51-12.71,50.98c-.97,2.38-3.41,5.97-8.92,4.61.2.28-14.13-3.52-14.13-3.52l-9.65,22.25,25.31,6.31c4.7,1.18,9.32,2.42,13.85,3.58l-8.04,32.31,19.43,4.84,7.97-31.95c5.31,1.43,10.46,2.76,15.5,4.02l-7.94,31.81,19.44,4.84,8.04-32.24c33.16,6.28,58.09,3.75,68.59-26.25,8.46-24.14-.42-38.08-17.86-47.16,12.71-2.93,22.27-11.28,24.83-28.55M516.44,310.03c-6,24.15-46.66,11.09-59.85,7.82l10.69-42.81c13.18,3.3,55.45,9.81,49.16,34.99M522.46,247.38c-5.48,21.97-39.32,10.8-50.29,8.07l9.68-38.81c10.97,2.73,46.33,7.83,40.61,30.75" style="fill:#44c3d4; fill-rule:evenodd; stroke-width:0px;"/></g></svg>
