<?xml version="1.0" encoding="UTF-8"?><svg xmlns="http://www.w3.org/2000/svg" xmlns:xlink="http://www.w3.org/1999/xlink" viewBox="0 0 960 540"><defs><clipPath id="b"><rect y="-580" width="960" height="540" style="fill:none; stroke-width:0px;"/></clipPath><clipPath id="d"><rect width="960" height="540" style="fill:none; stroke-width:0px;"/></clipPath></defs><g id="a"><g style="clip-path:url(#b);"><path d="M93.47,274.22h-362.89l-.72-1.25L-450.86-40.2l181.44-314.02H93.47l.72,1.25L274.92-40.2l-.72,1.25L93.47,274.22ZM-266.53,269.22H90.58L269.14-40.2,90.59-349.22h-357.11L-445.08-40.2l178.56,309.42Z" style="fill:#fff; opacity:.12; stroke-width:0px;"/><path d="M1304.93,4.22h-362.89l-.72-1.25-180.72-313.17.72-1.25,180.72-312.77h362.88l.72,1.25,180.72,312.77L1304.93,4.22ZM944.93-.78h357.11l178.56-309.42-178.56-309.02h-357.12l-178.56,309.02L944.93-.78Z" style="fill:#fff; opacity:.12; stroke-width:0px;"/></g></g><g id="c"><rect width="960" height="540" style="fill:#3c4996; stroke-width:0px;"/><g style="clip-path:url(#d);"><polygon points="93.79 -311.72 -266.21 -311.72 -446.21 -.2 -266.21 311.72 93.79 311.72 273.79 -.2 93.79 -311.72" style="fill:none; opacity:.12; stroke:#fff; stroke-miterlimit:10; stroke-width:5px;"/><polygon points="1300.98 228.28 940.98 228.28 760.98 539.8 940.98 851.72 1300.98 851.72 1480.98 539.8 1300.98 228.28" style="fill:none; opacity:.12; stroke:#fff; stroke-miterlimit:10; stroke-width:5px;"/></g><path d="M382.76,200.34c-5.2.01-9.56,1.78-13.09,5.3-3.53,3.52-5.3,7.88-5.3,13.09v55.17c.01,5.2,1.78,9.56,5.3,13.09,3.52,3.53,7.88,5.3,13.09,5.3,5.2.01,9.56-1.75,13.09-5.28,3.53-3.53,5.3-7.9,5.3-13.11v-55.17c.01-5.2-1.75-9.56-5.28-13.09-3.53-3.53-7.9-5.3-13.11-5.3Z" style="fill:#8a96dc; stroke-width:0px;"/><path d="M447.13,163.56c-5.2.01-9.56,1.78-13.09,5.3-3.53,3.52-5.3,7.88-5.3,13.09v91.95c.01,5.2,1.78,9.56,5.3,13.09,3.52,3.53,7.88,5.3,13.09,5.3,5.2.01,9.56-1.75,13.09-5.28,3.53-3.53,5.3-7.9,5.3-13.11v-91.95c.01-5.2-1.75-9.56-5.28-13.09-3.53-3.53-7.9-5.3-13.11-5.3Z" style="fill:#8a96dc; stroke-width:0px;"/><path d="M511.49,218.74c-5.2.01-9.56,1.78-13.09,5.3-3.53,3.52-5.3,7.88-5.3,13.09v36.78c.01,5.2,1.78,9.56,5.3,13.09,3.52,3.53,7.88,5.3,13.09,5.3,5.2.01,9.56-1.75,13.09-5.28s5.3-7.9,5.3-13.11v-36.78c.01-5.2-1.75-9.56-5.28-13.09-3.53-3.53-7.9-5.3-13.11-5.3Z" style="fill:#8a96dc; stroke-width:0px;"/><path d="M654.94,419.2l-91.49-91.49c9.82-12.57,17.41-26.51,22.77-41.84,5.36-15.33,8.04-31.57,8.04-48.74,0-41.07-14.25-75.86-42.76-104.37s-63.29-42.76-104.37-42.76-75.86,14.25-104.37,42.76c-28.51,28.51-42.76,63.29-42.76,104.37s14.25,75.86,42.76,104.37c28.51,28.51,63.3,42.76,104.37,42.76,17.16.01,33.41-2.67,48.74-8.04,15.33-5.37,29.27-12.96,41.84-22.77l91.49,91.49c3.37,3.37,7.66,5.06,12.87,5.06,5.21,0,9.5-1.69,12.87-5.06,3.37-3.37,5.06-7.66,5.06-12.87s-1.69-9.5-5.06-12.87ZM525.29,315.29c-21.46,21.46-47.51,32.18-78.16,32.18s-56.71-10.73-78.16-32.18-32.18-47.51-32.18-78.16,10.73-56.7,32.18-78.16c21.46-21.46,47.51-32.18,78.16-32.18s56.7,10.73,78.16,32.18c21.46,21.46,32.18,47.51,32.18,78.16s-10.73,56.71-32.18,78.16Z" style="fill:#fff; stroke-width:0px;"/></g></svg>
