<?xml version="1.0" encoding="utf-8"?>
<!-- Generator: Adobe Illustrator 27.2.0, SVG Export Plug-In . SVG Version: 6.00 Build 0)  -->
<svg version="1.1" id="Warstwa_1" xmlns="http://www.w3.org/2000/svg" xmlns:xlink="http://www.w3.org/1999/xlink" x="0px" y="0px"
	 viewBox="0 0 410 104" style="enable-background:new 0 0 410 104;" xml:space="preserve">
<style type="text/css">
	.st0{fill:#FAB90F;}
</style>
<g>
	<g>
		<path class="st0" d="M89.5,49.2H61.1L46.9,24.6L61.1,0.1h28.3l14.2,24.5L89.5,49.2z M63.7,44.6h23.1l11.6-20l-11.6-20H63.7
			l-11.6,20L63.7,44.6z"/>
		<path class="st0" d="M89.5,103.9H61.1L46.9,79.4l14.2-24.5h28.3l14.2,24.5L89.5,103.9z M63.7,99.4h23.1l11.6-20l-11.6-20H63.7
			l-11.6,20L63.7,99.4z"/>
		<polygon class="st0" points="136,27.5 107.6,27.5 93.5,52 107.6,76.5 136,76.5 150.2,52 		"/>
		<polygon class="st0" points="42.5,27.5 14.2,27.5 0,52 14.2,76.5 42.5,76.5 56.7,52 		"/>
	</g>
	<g>
		<path d="M183.2,73.5V30.2h7.9v21.5l-1.3,7l1.3,7.1v7.8H183.2z M199.2,74.1c-2.1,0-4-0.4-5.6-1.3c-1.7-0.9-3-2.1-4-3.6
			c-1-1.5-1.5-3.2-1.6-5.1V53.8c0.1-1.9,0.6-3.6,1.6-5.1c1-1.5,2.4-2.7,4.1-3.5c1.7-0.8,3.5-1.3,5.6-1.3c2.7,0,5.1,0.7,7.2,2
			c2.1,1.3,3.8,3.1,5,5.4c1.2,2.3,1.8,4.9,1.8,7.7c0,2.8-0.6,5.4-1.8,7.7c-1.2,2.3-2.9,4.1-5,5.4C204.3,73.5,201.9,74.1,199.2,74.1z
			 M197.9,66.9c1.4,0,2.7-0.3,3.8-1c1.1-0.7,2-1.6,2.6-2.8c0.6-1.2,0.9-2.5,0.9-4.1c0-1.5-0.3-2.9-0.9-4c-0.6-1.2-1.5-2.1-2.6-2.8
			c-1.1-0.7-2.4-1-3.8-1c-1.4,0-2.7,0.3-3.8,1c-1.1,0.7-2,1.6-2.6,2.8c-0.6,1.2-0.9,2.5-0.9,4c0,1.6,0.3,2.9,0.9,4.1
			c0.6,1.2,1.5,2.1,2.6,2.8C195.2,66.6,196.5,66.9,197.9,66.9z"/>
		<path d="M226.7,73.8l-12.1-29.2h8.5l8,22.3h-2.9l8.3-22.3h8.6l-12.9,29.2L226.7,73.8z M218.7,85.7l8.8-18.7l4.8,6.7L227,85.7
			H218.7z"/>
		<path d="M246.4,51.5v-6.9h21.4v6.9H246.4z M253.2,73.5v-41h7.9v41H253.2z"/>
		<path d="M285.7,74.1c-3,0-5.7-0.6-8.1-2c-2.4-1.3-4.2-3.1-5.6-5.4c-1.4-2.3-2.1-4.9-2.1-7.8c0-2.9,0.7-5.4,2-7.7
			c1.3-2.3,3.2-4.1,5.5-5.4c2.3-1.3,4.9-2,7.7-2c2.8,0,5.3,0.6,7.4,1.9c2.1,1.3,3.8,3,5,5.2c1.2,2.2,1.8,4.6,1.8,7.4
			c0,0.5,0,1.1-0.1,1.6c-0.1,0.5-0.2,1.2-0.3,1.8l-24.4,0.1V56l20.7-0.1l-3.2,2.5c-0.1-1.7-0.4-3.2-0.9-4.3c-0.5-1.2-1.3-2-2.3-2.7
			c-1-0.6-2.3-0.9-3.7-0.9c-1.6,0-2.9,0.4-4.1,1.1c-1.2,0.7-2,1.7-2.7,2.9c-0.6,1.3-0.9,2.8-0.9,4.5c0,1.8,0.3,3.3,1,4.6
			c0.7,1.3,1.6,2.3,2.8,3c1.2,0.7,2.7,1,4.3,1c1.5,0,2.8-0.2,4-0.7c1.2-0.5,2.2-1.2,3.1-2.2l4.6,4.6c-1.4,1.6-3.1,2.9-5.1,3.7
			C290.3,73.7,288.1,74.1,285.7,74.1z"/>
		<path d="M311.4,73.5l-10.9-29h7.9l7.1,21.1l-2.4,0.1l7.3-21.1h5.7l7.3,21.1l-2.4-0.1l7.1-21.1h7.9l-10.8,29h-5.7l-7.3-20h2.2
			l-7.3,20H311.4z"/>
		<path d="M360.4,74.1c-2.6,0-5-0.7-7.1-2c-2.1-1.3-3.8-3.1-5-5.4c-1.2-2.3-1.8-4.8-1.8-7.7c0-2.9,0.6-5.5,1.8-7.7
			c1.2-2.3,2.9-4.1,5-5.4c2.1-1.3,4.5-2,7.1-2c2.1,0,3.9,0.4,5.6,1.3c1.6,0.8,2.9,2,3.9,3.5c1,1.5,1.5,3.2,1.6,5.1v10.4
			c-0.1,1.9-0.6,3.6-1.6,5.1c-1,1.5-2.3,2.7-3.9,3.5C364.3,73.7,362.5,74.1,360.4,74.1z M361.8,66.9c2.2,0,4-0.7,5.3-2.2
			c1.4-1.5,2-3.3,2-5.7c0-1.5-0.3-2.9-0.9-4c-0.6-1.2-1.5-2.1-2.6-2.8c-1.1-0.7-2.4-1-3.9-1c-1.4,0-2.7,0.3-3.8,1
			c-1.1,0.7-2,1.6-2.6,2.8c-0.6,1.2-0.9,2.5-0.9,4c0,1.6,0.3,2.9,0.9,4.1c0.6,1.2,1.5,2.1,2.6,2.8C359.1,66.6,360.4,66.9,361.8,66.9
			z M368.8,73.5v-7.8l1.3-7.1l-1.3-7v-7.1h7.8v29H368.8z"/>
		<path d="M379.6,73.5L391.5,57l4.5,5.3l-7.4,11.2H379.6z M400.8,73.5l-7.6-11.8l-1.6-1.2l-11.3-16h9.3l7,10.6l1.5,1.1L410,73.5
			H400.8z M398.4,60.5l-4.6-5.3l6.9-10.7h8.8L398.4,60.5z"/>
	</g>
</g>
</svg>
