<?xml version="1.0" encoding="utf-8"?>
<!-- Generator: Adobe Illustrator 28.3.0, SVG Export Plug-In . SVG Version: 6.00 Build 0)  -->
<svg version="1.1" id="Warstwa_1" xmlns="http://www.w3.org/2000/svg" xmlns:xlink="http://www.w3.org/1999/xlink" x="0px" y="0px"
	 viewBox="0 0 960 540" style="enable-background:new 0 0 960 540;" xml:space="preserve">
<style type="text/css">
	.st0{fill:#285943;}
	.st1{fill:#96C84B;}
	.st2{fill:#FFFFFF;}
	.st3{opacity:0.12;clip-path:url(#SVGID_00000158000528087873614910000014154770271145992356_);fill:#FFFFFF;}
</style>
<rect class="st0" width="960" height="540"/>
<g>
	<path class="st1" d="M324.2,359.9l26-15C337.4,322.9,330,297.3,330,270c0-82.9,67.1-150,150-150c27.3,0,52.9,7.4,74.9,20.2
		l-11.2,19.4l70.7-2.5l-33.2-62.5l-11.3,19.6C543.5,98.9,512.8,90,480,90c-99.4,0-180,80.6-180,180
		C300,302.8,308.9,333.4,324.2,359.9z"/>
	<path class="st1" d="M345.5,382.9l33.2,62.5l11.3-19.6c26.5,15.3,57.1,24.3,89.9,24.3c99.4,0,180-80.6,180-180
		c0-32.8-8.9-63.4-24.2-89.9l-26,15c12.8,22.1,20.2,47.6,20.2,74.9c0,82.8-67.2,150-150,150c-27.3,0-52.9-7.4-75-20.2l11.2-19.4
		L345.5,382.9z"/>
	<g>
		<path class="st2" d="M432.7,232.5l-3-10.4c-4.5-15.7-19.6-27.1-36-27.1H375v22.5h18.8c6.2,0,12.6,4.9,14.3,10.8l22.8,79.8
			c2.3,7.9,10.9,14.4,19.1,14.4h90c8.2,0,16.1-6.7,17.5-14.8l12.5-75.2H432.7z M535.9,300h-84l-12.9-45h104.3L535.9,300z"/>
		<circle class="st2" cx="525" cy="352.5" r="15"/>
		<circle class="st2" cx="465" cy="352.5" r="15"/>
	</g>
</g>
<g>
	<defs>
		<rect id="SVGID_1_" width="960" height="540"/>
	</defs>
	<clipPath id="SVGID_00000138571347032889192010000009416242767615865250_">
		<use xlink:href="#SVGID_1_"  style="overflow:visible;"/>
	</clipPath>
	<path style="opacity:0.12;clip-path:url(#SVGID_00000138571347032889192010000009416242767615865250_);fill:#FFFFFF;" d="
		M93.5,854.2h-362.9l-0.7-1.2l-180.7-313.2l181.4-314H93.5l0.7,1.2l180.7,312.8l-0.7,1.3L93.5,854.2z M-266.5,849.2H90.6
		l178.6-309.4l-178.6-309h-357.1l-178.6,309L-266.5,849.2z"/>
	<path style="opacity:0.12;clip-path:url(#SVGID_00000138571347032889192010000009416242767615865250_);fill:#FFFFFF;" d="
		M1304.9,584.2H942l-0.7-1.2L760.6,269.8l0.7-1.2L942-44.2h362.9l0.7,1.2l180.7,312.8L1304.9,584.2z M944.9,579.2H1302l178.6-309.4
		L1302-39.2H944.9l-178.6,309L944.9,579.2z"/>
</g>
</svg>
