<?xml version="1.0" encoding="UTF-8"?><svg xmlns="http://www.w3.org/2000/svg" xmlns:xlink="http://www.w3.org/1999/xlink" viewBox="0 0 960 540"><defs><clipPath id="c"><rect y="-620" width="960" height="540" style="fill:none; stroke-width:0px;"/></clipPath></defs><g id="b"><g style="clip-path:url(#c);"><polygon points="1300.98 -391.72 940.98 -391.72 760.98 -80.2 940.98 231.72 1300.98 231.72 1480.98 -80.2 1300.98 -391.72" style="fill:none; opacity:.12; stroke:#fff; stroke-miterlimit:10; stroke-width:5px;"/></g></g><g id="e"><rect width="960" height="540" style="fill:#fea137; stroke-width:0px;"/><rect y="246" width="960" height="48" style="fill:#ed802d; opacity:.5; stroke-width:0px;"/><circle cx="140" cy="270" r="60" style="fill:#fff; stroke-width:0px;"/><path d="M151.68,243.82v52.36h-11.07v-41.86h-.31l-11.99,7.52v-9.82l12.96-8.21h10.41Z" style="fill:#fea137; stroke-width:0px;"/><circle cx="310" cy="270" r="60" style="fill:#fff; stroke-width:0px;"/><path d="M291.59,296.54v-7.98l18.64-17.26c1.58-1.53,2.92-2.91,4-4.14,1.08-1.23,1.91-2.43,2.47-3.62s.84-2.47.84-3.85c0-1.54-.35-2.86-1.05-3.98-.7-1.12-1.65-1.98-2.86-2.58-1.21-.61-2.58-.91-4.12-.91s-3,.32-4.19.97c-1.19.65-2.11,1.58-2.76,2.79-.65,1.21-.97,2.65-.97,4.32h-10.51c0-3.43.78-6.4,2.33-8.92,1.55-2.52,3.72-4.47,6.52-5.86,2.8-1.38,6.02-2.07,9.67-2.07s7.02.66,9.81,1.98c2.79,1.32,4.96,3.15,6.51,5.48,1.55,2.33,2.33,5.01,2.33,8.03,0,1.98-.39,3.93-1.16,5.86-.78,1.93-2.15,4.06-4.13,6.4s-4.76,5.15-8.36,8.43l-7.65,7.49v.36h21.99v9.05h-37.33Z" style="fill:#fea137; stroke-width:0px;"/><circle cx="650" cy="270" r="60" style="fill:#fff; stroke-width:0px;"/><path d="M628.89,286.98v-8.72l21.86-34.44h7.52v12.07h-4.45l-13.78,21.81v.41h31.07v8.87h-42.21ZM654.03,296.18v-11.86l.21-3.86v-36.64h10.38v52.36h-10.59Z" style="fill:#fea137; stroke-width:0px;"/><circle cx="820" cy="270" r="60" style="fill:#fff; stroke-width:0px;"/><path d="M819.69,296.54c-3.61,0-6.83-.66-9.65-1.99-2.82-1.33-5.06-3.16-6.71-5.5-1.65-2.34-2.51-5.01-2.58-8.03h10.74c.12,2.03.97,3.67,2.56,4.94s3.47,1.89,5.65,1.89c1.74,0,3.28-.39,4.62-1.16s2.39-1.86,3.14-3.25c.76-1.39,1.14-2.99,1.14-4.79s-.39-3.46-1.16-4.86c-.78-1.4-1.84-2.49-3.21-3.27-1.36-.79-2.92-1.19-4.68-1.2-1.53,0-3.02.32-4.46.95s-2.56,1.49-3.36,2.58l-9.84-1.76,2.48-27.61h32.01v9.05h-22.88l-1.36,13.12h.31c.92-1.29,2.31-2.37,4.17-3.22s3.94-1.28,6.24-1.28c3.15,0,5.97.74,8.44,2.22,2.47,1.48,4.42,3.52,5.85,6.1,1.43,2.58,2.14,5.55,2.12,8.91.02,3.53-.8,6.66-2.44,9.4-1.65,2.73-3.94,4.88-6.88,6.44-2.94,1.56-6.35,2.34-10.24,2.34Z" style="fill:#fea137; stroke-width:0px;"/><circle cx="480" cy="270" r="60" style="fill:#ef721f; stroke-width:0px;"/><path d="M472.56,282.51v-1.03c.02-3.55.34-6.38.96-8.5.62-2.11,1.53-3.81,2.72-5.11,1.2-1.3,2.64-2.47,4.32-3.53,1.26-.81,2.39-1.66,3.38-2.53s1.79-1.84,2.38-2.91c.59-1.07.88-2.26.88-3.58,0-1.4-.33-2.63-1-3.68s-1.57-1.87-2.69-2.44c-1.13-.57-2.37-.85-3.73-.85s-2.57.29-3.75.87-2.14,1.43-2.89,2.56c-.75,1.13-1.16,2.52-1.22,4.19h-12.42c.1-4.06,1.08-7.41,2.92-10.06,1.85-2.65,4.29-4.63,7.34-5.94,3.04-1.31,6.4-1.96,10.08-1.96,4.04,0,7.61.67,10.72,1.99,3.1,1.33,5.54,3.25,7.31,5.77,1.77,2.52,2.65,5.55,2.65,9.1,0,2.37-.39,4.48-1.17,6.32s-1.87,3.46-3.27,4.87c-1.4,1.41-3.05,2.69-4.96,3.82-1.6.96-2.92,1.95-3.94,2.98-1.03,1.03-1.79,2.23-2.28,3.59s-.76,3.04-.78,5.02v1.03h-11.54ZM478.58,302c-2.03,0-3.76-.72-5.19-2.15-1.43-1.43-2.14-3.15-2.12-5.16-.02-1.99.68-3.69,2.12-5.11,1.43-1.42,3.16-2.13,5.19-2.13s3.62.71,5.09,2.13,2.2,3.13,2.22,5.11c-.02,1.34-.37,2.56-1.05,3.67-.68,1.11-1.57,1.99-2.66,2.65-1.1.66-2.29.99-3.59.99Z" style="fill:#fff; stroke-width:0px;"/></g></svg>
